<svg id="visual" viewBox="0 0 960 540" width="960" height="540" xmlns="http://www.w3.org/2000/svg" xmlns:xlink="http://www.w3.org/1999/xlink" version="1.1"><rect x="0" y="0" width="960" height="540" fill="#2956ad"></rect><g fill="#CCCCCC"><circle r="54" cx="517" cy="487"></circle><circle r="14" cx="138" cy="85"></circle><circle r="36" cx="394" cy="83"></circle><circle r="45" cx="216" cy="471"></circle><circle r="28" cx="549" cy="163"></circle><circle r="51" cx="126" cy="191"></circle><circle r="30" cx="626" cy="53"></circle><circle r="13" cx="768" cy="93"></circle><circle r="20" cx="57" cy="397"></circle><circle r="51" cx="535" cy="308"></circle><circle r="52" cx="291" cy="327"></circle><circle r="31" cx="864" cy="304"></circle><circle r="21" cx="268" cy="47"></circle><circle r="18" cx="166" cy="359"></circle><circle r="39" cx="905" cy="133"></circle><circle r="42" cx="666" cy="242"></circle><circle r="34" cx="912" cy="457"></circle><circle r="40" cx="19" cy="15"></circle><circle r="29" cx="270" cy="169"></circle></g></svg>