<svg id="visual" viewBox="0 0 900 600" width="900" height="600" xmlns="http://www.w3.org/2000/svg" xmlns:xlink="http://www.w3.org/1999/xlink" version="1.1"><rect x="0" y="0" width="900" height="600" fill="#ffffff"></rect><path d="M0 552L90 557L180 556L270 557L360 557L450 551L540 550L630 549L720 556L810 551L900 550L900 0L810 0L720 0L630 0L540 0L450 0L360 0L270 0L180 0L90 0L0 0Z" fill="#715df2"></path><path d="M0 503L90 502L180 502L270 508L360 507L450 509L540 508L630 509L720 507L810 510L900 507L900 0L810 0L720 0L630 0L540 0L450 0L360 0L270 0L180 0L90 0L0 0Z" fill="#a251e2"></path><path d="M0 458L90 456L180 456L270 457L360 460L450 461L540 462L630 460L720 457L810 461L900 461L900 0L810 0L720 0L630 0L540 0L450 0L360 0L270 0L180 0L90 0L0 0Z" fill="#c444d0"></path><path d="M0 416L90 410L180 413L270 418L360 412L450 416L540 414L630 412L720 419L810 419L900 412L900 0L810 0L720 0L630 0L540 0L450 0L360 0L270 0L180 0L90 0L0 0Z" fill="#dd38bb"></path><path d="M0 367L90 367L180 371L270 369L360 368L450 369L540 370L630 372L720 370L810 372L900 371L900 0L810 0L720 0L630 0L540 0L450 0L360 0L270 0L180 0L90 0L0 0Z" fill="#ef31a5"></path><path d="M0 323L90 319L180 324L270 322L360 323L450 319L540 326L630 325L720 326L810 326L900 323L900 0L810 0L720 0L630 0L540 0L450 0L360 0L270 0L180 0L90 0L0 0Z" fill="#fb3390"></path><path d="M0 277L90 274L180 272L270 274L360 279L450 275L540 280L630 279L720 276L810 276L900 276L900 0L810 0L720 0L630 0L540 0L450 0L360 0L270 0L180 0L90 0L0 0Z" fill="#ff3d7b"></path><path d="M0 234L90 230L180 233L270 233L360 232L450 225L540 226L630 230L720 231L810 232L900 234L900 0L810 0L720 0L630 0L540 0L450 0L360 0L270 0L180 0L90 0L0 0Z" fill="#ff4f65"></path><path d="M0 186L90 180L180 182L270 183L360 186L450 187L540 186L630 185L720 184L810 184L900 181L900 0L810 0L720 0L630 0L540 0L450 0L360 0L270 0L180 0L90 0L0 0Z" fill="#ff6450"></path><path d="M0 138L90 135L180 137L270 140L360 135L450 134L540 141L630 141L720 137L810 136L900 140L900 0L810 0L720 0L630 0L540 0L450 0L360 0L270 0L180 0L90 0L0 0Z" fill="#ff7a3b"></path><path d="M0 93L90 95L180 96L270 87L360 92L450 87L540 91L630 93L720 91L810 91L900 94L900 0L810 0L720 0L630 0L540 0L450 0L360 0L270 0L180 0L90 0L0 0Z" fill="#ff9123"></path><path d="M0 43L90 42L180 45L270 48L360 46L450 47L540 49L630 43L720 44L810 45L900 46L900 0L810 0L720 0L630 0L540 0L450 0L360 0L270 0L180 0L90 0L0 0Z" fill="#ffa700"></path></svg>