<svg id="visual" viewBox="0 0 900 600" width="900" height="600" xmlns="http://www.w3.org/2000/svg" xmlns:xlink="http://www.w3.org/1999/xlink" version="1.1"><rect x="0" y="0" width="900" height="600" fill="#002233"></rect><path d="M0 274L30 272.2C60 270.3 120 266.7 180 280.8C240 295 300 327 360 338C420 349 480 339 540 325.8C600 312.7 660 296.3 720 291.7C780 287 840 294 870 297.5L900 301L900 0L870 0C840 0 780 0 720 0C660 0 600 0 540 0C480 0 420 0 360 0C300 0 240 0 180 0C120 0 60 0 30 0L0 0Z" fill="#ff6100" stroke-linecap="round" stroke-linejoin="miter"></path></svg>